<svg width="591" height="188" viewBox="0 0 591 188" fill="none" xmlns="http://www.w3.org/2000/svg">
<rect x="8" y="8" width="575" height="172" fill="white"/>
<rect x="8" y="8" width="575" height="172" stroke="black" stroke-width="16"/>
<path d="M61.821 86.496H104.957V102.624H61.821V86.496ZM63.357 123.36H112.125V140H42.749V50.4H110.461V67.04H63.357V123.36ZM128.624 140V50.4H167.408C175.429 50.4 182.341 51.7227 188.144 54.368C193.947 56.928 198.427 60.64 201.584 65.504C204.741 70.368 206.32 76.1707 206.32 82.912C206.32 89.568 204.741 95.328 201.584 100.192C198.427 104.971 193.947 108.64 188.144 111.2C182.341 113.76 175.429 115.04 167.408 115.04H140.144L149.36 105.952V140H128.624ZM185.584 140L163.184 107.488H185.328L207.984 140H185.584ZM149.36 108.256L140.144 98.528H166.256C172.656 98.528 177.435 97.1627 180.592 94.432C183.749 91.616 185.328 87.776 185.328 82.912C185.328 77.9627 183.749 74.1227 180.592 71.392C177.435 68.6613 172.656 67.296 166.256 67.296H140.144L149.36 57.44V108.256ZM218.531 111.968V95.968H254.755V111.968H218.531ZM315.769 141.536C308.686 141.536 302.116 140.384 296.057 138.08C290.084 135.776 284.878 132.533 280.441 128.352C276.089 124.171 272.676 119.264 270.201 113.632C267.812 108 266.617 101.856 266.617 95.2C266.617 88.544 267.812 82.4 270.201 76.768C272.676 71.136 276.132 66.2293 280.569 62.048C285.006 57.8667 290.212 54.624 296.185 52.32C302.158 50.016 308.644 48.864 315.641 48.864C322.724 48.864 329.209 50.016 335.097 52.32C341.07 54.624 346.233 57.8667 350.585 62.048C355.022 66.2293 358.478 71.136 360.953 76.768C363.428 82.3147 364.665 88.4587 364.665 95.2C364.665 101.856 363.428 108.043 360.953 113.76C358.478 119.392 355.022 124.299 350.585 128.48C346.233 132.576 341.07 135.776 335.097 138.08C329.209 140.384 322.766 141.536 315.769 141.536ZM315.641 123.872C319.652 123.872 323.321 123.189 326.649 121.824C330.062 120.459 333.049 118.496 335.609 115.936C338.169 113.376 340.132 110.347 341.497 106.848C342.948 103.349 343.673 99.4667 343.673 95.2C343.673 90.9333 342.948 87.0507 341.497 83.552C340.132 80.0533 338.169 77.024 335.609 74.464C333.134 71.904 330.19 69.9413 326.777 68.576C323.364 67.2107 319.652 66.528 315.641 66.528C311.63 66.528 307.918 67.2107 304.505 68.576C301.177 69.9413 298.233 71.904 295.673 74.464C293.113 77.024 291.108 80.0533 289.657 83.552C288.292 87.0507 287.609 90.9333 287.609 95.2C287.609 99.3813 288.292 103.264 289.657 106.848C291.108 110.347 293.07 113.376 295.545 115.936C298.105 118.496 301.092 120.459 304.505 121.824C307.918 123.189 311.63 123.872 315.641 123.872ZM380.249 140V50.4H397.401L450.265 114.912H441.945V50.4H462.425V140H445.401L392.409 75.488H400.729V140H380.249ZM502.696 86.496H545.832V102.624H502.696V86.496ZM504.232 123.36H553V140H483.624V50.4H551.336V67.04H504.232V123.36Z" fill="black"/>
</svg>
