<svg width="500" height="500" viewBox="0 0 500 500" fill="none" xmlns="http://www.w3.org/2000/svg">
<rect x="8" y="8" width="484" height="484" fill="white"/>
<rect x="8" y="8" width="484" height="484" stroke="black" stroke-width="16"/>
<path d="M189.696 164.496H232.832V180.624H189.696V164.496ZM191.232 201.36H240V218H170.624V128.4H238.336V145.04H191.232V201.36ZM256.499 218V128.4H295.283C303.304 128.4 310.216 129.723 316.019 132.368C321.822 134.928 326.302 138.64 329.459 143.504C332.616 148.368 334.195 154.171 334.195 160.912C334.195 167.568 332.616 173.328 329.459 178.192C326.302 182.971 321.822 186.64 316.019 189.2C310.216 191.76 303.304 193.04 295.283 193.04H268.019L277.235 183.952V218H256.499ZM313.459 218L291.059 185.488H313.203L335.859 218H313.459ZM277.235 186.256L268.019 176.528H294.131C300.531 176.528 305.31 175.163 308.467 172.432C311.624 169.616 313.203 165.776 313.203 160.912C313.203 155.963 311.624 152.123 308.467 149.392C305.31 146.661 300.531 145.296 294.131 145.296H268.019L277.235 135.44V186.256ZM155.519 375.536C148.436 375.536 141.866 374.384 135.807 372.08C129.834 369.776 124.628 366.533 120.191 362.352C115.839 358.171 112.426 353.264 109.951 347.632C107.562 342 106.367 335.856 106.367 329.2C106.367 322.544 107.562 316.4 109.951 310.768C112.426 305.136 115.882 300.229 120.319 296.048C124.756 291.867 129.962 288.624 135.935 286.32C141.908 284.016 148.394 282.864 155.391 282.864C162.474 282.864 168.959 284.016 174.847 286.32C180.82 288.624 185.983 291.867 190.335 296.048C194.772 300.229 198.228 305.136 200.703 310.768C203.178 316.315 204.415 322.459 204.415 329.2C204.415 335.856 203.178 342.043 200.703 347.76C198.228 353.392 194.772 358.299 190.335 362.48C185.983 366.576 180.82 369.776 174.847 372.08C168.959 374.384 162.516 375.536 155.519 375.536ZM155.391 357.872C159.402 357.872 163.071 357.189 166.399 355.824C169.812 354.459 172.799 352.496 175.359 349.936C177.919 347.376 179.882 344.347 181.247 340.848C182.698 337.349 183.423 333.467 183.423 329.2C183.423 324.933 182.698 321.051 181.247 317.552C179.882 314.053 177.919 311.024 175.359 308.464C172.884 305.904 169.94 303.941 166.527 302.576C163.114 301.211 159.402 300.528 155.391 300.528C151.38 300.528 147.668 301.211 144.255 302.576C140.927 303.941 137.983 305.904 135.423 308.464C132.863 311.024 130.858 314.053 129.407 317.552C128.042 321.051 127.359 324.933 127.359 329.2C127.359 333.381 128.042 337.264 129.407 340.848C130.858 344.347 132.82 347.376 135.295 349.936C137.855 352.496 140.842 354.459 144.255 355.824C147.668 357.189 151.38 357.872 155.391 357.872ZM219.999 374V284.4H237.151L290.015 348.912H281.695V284.4H302.175V374H285.151L232.159 309.488H240.479V374H219.999ZM342.446 320.496H385.582V336.624H342.446V320.496ZM343.982 357.36H392.75V374H323.374V284.4H391.086V301.04H343.982V357.36Z" fill="black"/>
</svg>
